<svg xmlns="http://www.w3.org/2000/svg" xmlns:xlink="http://www.w3.org/1999/xlink" id="Layer_1" x="0" y="0" version="1.1" viewBox="0 0 600 600" xml:space="preserve" style="enable-background:new 0 0 600 600"><style type="text/css">.st0{fill:url(#SVGID_2_)}.st1{fill:url(#SVGID_3_)}.st2{fill:url(#SVGID_4_)}.st3{fill:url(#SVGID_5_)}.st4{fill:url(#SVGID_6_)}.st5{fill:url(#SVGID_7_)}.st6{fill:url(#SVGID_8_)}.st7{fill:url(#SVGID_9_)}.st8{fill:url(#SVGID_10_)}.st9{opacity:.5;fill:url(#SVGID_11_)}.st10,.st11{opacity:.5;fill:url(#SVGID_12_)}.st11{fill:url(#SVGID_13_)}.st12{fill:url(#SVGID_14_)}.st13{fill:url(#SVGID_15_)}.st14{fill:url(#SVGID_16_)}.st15{fill:url(#SVGID_17_)}.st16{fill:url(#SVGID_18_)}.st17{fill:url(#SVGID_19_)}.st18{fill:url(#SVGID_20_)}.st19{fill:url(#SVGID_21_)}.st20{fill:url(#SVGID_22_)}.st21{fill:url(#SVGID_23_)}.st22{fill:url(#SVGID_24_)}.st23{fill:url(#SVGID_25_)}.st24{fill:url(#SVGID_26_)}.st25{fill:url(#SVGID_27_)}.st26{fill:url(#SVGID_28_)}.st27{fill:url(#SVGID_29_)}.st28{fill:url(#SVGID_30_)}.st29{fill:#fff}.st30{fill:#d25d50}.st31{fill:url(#SVGID_31_)}.st32{fill:url(#SVGID_32_)}.st33{fill:url(#SVGID_33_)}.st34{fill:#d6797e}.st35{fill:url(#SVGID_34_)}.st36{fill:url(#SVGID_35_)}.st37,.st38{opacity:.5;fill:url(#SVGID_36_)}.st38{fill:url(#SVGID_37_)}.st39{fill:url(#SVGID_38_)}.st40{fill:url(#SVGID_39_)}.st41,.st42{opacity:.5;fill:url(#SVGID_40_)}.st42{fill:url(#SVGID_41_)}</style><switch><g><linearGradient id="SVGID_1_" x1="0" x2=".707" y1="0" y2=".707" gradientUnits="userSpaceOnUse"><stop offset="0" style="stop-color:#dddee2"/><stop offset=".181" style="stop-color:#d9dade"/><stop offset=".366" style="stop-color:#cdced2"/><stop offset=".553" style="stop-color:#b8babd"/><stop offset=".742" style="stop-color:#9b9ea0"/><stop offset=".93" style="stop-color:#777a7c"/><stop offset="1" style="stop-color:#676b6c"/></linearGradient><g><g><linearGradient id="SVGID_2_" x1="388.818" x2="204.966" y1="152.633" y2="487.393" gradientUnits="userSpaceOnUse"><stop offset=".122" style="stop-color:#f1ca6d"/><stop offset=".977" style="stop-color:#e6aa48"/></linearGradient><path d="M598.3814087,399.7471313c-1.5622559,4.3146973-4.1978149,8.1299133-7.6835938,11.0842896 c-3.4857178,2.9649963-7.8217163,5.0585938-12.7528076,5.9300537l-422.4779053,74.4973755 c-15.4946289,2.7312317-31.1061554-7.6410217-34.87883-23.1781311L60.0338783,218.5515442l-13.6879768-56.3884888 c-0.6695251-2.7418518-0.9139328-5.4624481-0.7970467-8.1086273 c0.5632133-12.2851715,9.2669792-22.710556,22.0303841-24.9635468l422.4673462-74.4974518 c15.4945679-2.731163,31.1167297,7.641037,34.8894348,23.1782188l74.2423706,305.9176636 C600.5386963,389.3217468,600.166748,394.8479614,598.3814087,399.7471313z" class="st0"/></g><g><linearGradient id="SVGID_3_" x1="459.446" x2="306.412" y1="-95.388" y2="316.951" gradientUnits="userSpaceOnUse"><stop offset="0" style="stop-color:#fff"/><stop offset="1" style="stop-color:#efedee;stop-opacity:0"/></linearGradient><path d="M598.3814087,399.7471313L515.201416,162.3756256c0,0-31.881897,37.7269287-81.8302612,9.5645752 S406.802887,102.331337,406.802887,102.331337s-319.010498,33.401619-361.2540283,51.7230911 c0.5632133-12.2851715,9.2669792-22.710556,22.0303841-24.9635468l101.0657349-17.8220062l321.4016113-56.6754494 c15.4945679-2.731163,31.1167297,7.641037,34.8894348,23.1782188l59.5447998,245.3420105l14.6975708,60.5756531 C600.5386963,389.3217468,600.166748,394.8479614,598.3814087,399.7471313z" class="st1"/><linearGradient id="SVGID_4_" x1="440.864" x2="287.831" y1="-102.285" y2="310.055" gradientUnits="userSpaceOnUse"><stop offset="0" style="stop-color:#fff"/><stop offset="1" style="stop-color:#efedee;stop-opacity:0"/></linearGradient><path d="M315.4080505,145.9032898c0,23.0700684,69.6088562,22.3173523,67.4833984-1.5940857 S315.4080505,114.0213699,315.4080505,145.9032898z" class="st2"/><linearGradient id="SVGID_5_" x1="488.561" x2="335.528" y1="-84.583" y2="327.757" gradientUnits="userSpaceOnUse"><stop offset="0" style="stop-color:#fff"/><stop offset="1" style="stop-color:#efedee;stop-opacity:0"/></linearGradient><path d="M584.480835,323.1136475c-1.0946045-1.4347229-1.9873047-3.1457214-2.624939-5.1223755 L507.0290222,84.5093231c-2.3486633-7.3434448-9.5751953-11.9875717-17.2268677-11.0842743l-321.1571655,37.8438263 l321.4016113-56.6754494c15.4945679-2.731163,31.1167297,7.641037,34.8894348,23.1782188L584.480835,323.1136475z" class="st3"/></g><g><linearGradient id="SVGID_6_" x1="293.053" x2="308.994" y1="238.527" y2="530.778" gradientUnits="userSpaceOnUse"><stop offset=".002" style="stop-color:#dd9931"/><stop offset="1" style="stop-color:#bf8334"/></linearGradient><path d="M577.9402466,416.7647095L155.471817,491.2572327 c-15.5011139,2.7333069-31.1141891-7.6391296-34.8845978-23.175354L46.3440208,162.158905 c-2.1817627-8.9899445,0.0811424-17.7338562,5.3787766-24.0358429L6.2041411,192.2717285 c-5.2976322,6.3020477-7.5604753,15.0459137-5.378777,24.0359192l74.2432632,305.9229431 c3.7704086,15.5361938,19.3834839,25.9086304,34.8845978,23.175415l422.4684143-74.4926147 c6.5282593-1.1510925,11.9946899-4.4457092,15.8529053-9.0354309l45.5186157-54.1486511 C589.9349365,412.3190002,584.4684448,415.6135559,577.9402466,416.7647095z" class="st4"/><g><g><linearGradient id="SVGID_7_" x1="8.065" x2="45.791" y1="105.403" y2="254.185" gradientUnits="userSpaceOnUse"><stop offset="0" style="stop-color:#fff"/><stop offset="1" style="stop-color:#efedee;stop-opacity:0"/></linearGradient><path d="M6.2041616,192.2717743l45.5186005-54.1487122 c-5.2976151,6.3020172-7.5605049,15.0458984-5.3787651,24.0358734L0.8253881,216.3076477 C-1.3563502,207.3176727,0.9065377,198.5737915,6.2041616,192.2717743z" class="st5"/></g><g><linearGradient id="SVGID_8_" x1="309.97" x2="351.063" y1="351.109" y2="542.401" gradientUnits="userSpaceOnUse"><stop offset=".082" style="stop-color:#b38536;stop-opacity:0"/><stop offset=".977" style="stop-color:#a96831"/></linearGradient><path d="M593.7904053,407.7282715l-45.5167847,54.1461182 c-3.8577271,4.5910034-9.3201904,7.8854675-15.855957,9.0437927l-422.4673462,74.4868469 c-15.4945679,2.7312012-31.1060867-7.6410522-34.87883-23.1781616l45.516777-54.1461487 c3.7726746,15.5371094,19.384201,25.9093628,34.87883,23.1781311l422.4779053-74.4973755 C584.4702148,415.6137085,589.9326782,412.3192749,593.7904053,407.7282715z" class="st6"/></g></g><g><linearGradient id="SVGID_9_" x1="303.849" x2="364.071" y1="334.842" y2="554.473" gradientUnits="userSpaceOnUse"><stop offset=".082" style="stop-color:#b38536;stop-opacity:0"/><stop offset=".977" style="stop-color:#662d1d"/></linearGradient><polygon points="577.945 416.761 532.418 470.918 474.626 481.11 190.314 531.239 109.95 545.405 155.467 491.259 235.831 477.093 520.143 426.953" class="st7"/></g><linearGradient id="SVGID_10_" x1="279.925" x2="372.028" y1="308.215" y2="517.218" gradientUnits="userSpaceOnUse"><stop offset=".082" style="stop-color:#b38536;stop-opacity:0"/><stop offset=".977" style="stop-color:#662d1d"/></linearGradient><polygon points="520.143 426.953 474.626 481.11 190.314 531.239 235.831 477.093" class="st8"/></g><g><linearGradient id="SVGID_11_" x1="439.416" x2="307.409" y1="35.496" y2="358.65" gradientUnits="userSpaceOnUse"><stop offset="0" style="stop-color:#e2b646;stop-opacity:0"/><stop offset=".977" style="stop-color:#d89633"/></linearGradient><path d="M590.6978149,410.8314209c-3.4857178,2.9649963-7.8217163,5.0585938-12.7528076,5.9300537 l-422.4779053,74.4973755c-15.4946289,2.7312317-31.1061554-7.6410217-34.87883-23.1781311L60.0338783,218.5515442 c36.0690804,39.2785645,83.0417938,40.4794617,132.0230255,30.0115051 c7.6729431-1.6365814,15.3989563-3.5601196,23.1356659-5.6643677 c18.1408234,7.3328705,38.1838989,14.4212646,60.0123596,20.7338867 c11.1905823,3.2413025,22.8593445,6.2807617,34.9851379,9.0332031 c7.4072266,1.6897888,14.9844971,3.2838745,22.731781,4.7504578 c6.4401245-3.9746094,12.6571655-7.9917603,18.6721802-12.0513916 c9.8409119-6.6314392,19.1291504-13.358551,27.8966675-20.1174927 c6.4826965-4.9948578,12.6783752-10.0002747,18.5871582-15.0057526 c6.046936,4.2722015,11.5625305,9.3945618,16.5148926,15.3989563 c15.0482178,18.1833038,25.0485535,44.4221344,29.5863647,79.513504 C456.1242065,417.6329041,543.5019531,420.7254333,590.6978149,410.8314209z" class="st9"/><linearGradient id="SVGID_12_" x1="181.751" x2="134.375" y1="131.643" y2="247.619" gradientUnits="userSpaceOnUse"><stop offset="0" style="stop-color:#e2b646;stop-opacity:0"/><stop offset=".977" style="stop-color:#d89633"/></linearGradient><path d="M189.6551056,231.8888092c-4.5910034,0.0850372-9.4901733,0.0106354-14.7081451-0.2550507 c-3.8045959-0.1912842-7.4391174-0.4676056-10.9249115-0.7970428 c-52.3394852-5.058609-69.1518936-25.4842682-53.0408554-40.181839 c0.5951233-0.5632782,1.2540131-1.1052246,1.9447479-1.6365967 C128.9200897,199.9218445,154.8294678,215.905365,189.6551056,231.8888092z" class="st10"/><linearGradient id="SVGID_13_" x1="427.235" x2="294.394" y1="26.877" y2="352.072" gradientUnits="userSpaceOnUse"><stop offset="0" style="stop-color:#e2b646;stop-opacity:0"/><stop offset=".977" style="stop-color:#d89633"/></linearGradient><path d="M304.779541,282.9229126c-132.3009491-35.2695923-115.4955444,84.3737183-1.26297,109.2054749 S422.6543884,314.3467102,304.779541,282.9229126z" class="st11"/></g><g><linearGradient id="SVGID_14_" x1="90.304" x2="65.507" y1="227.113" y2="287.689" gradientUnits="userSpaceOnUse"><stop offset=".082" style="stop-color:#b38536;stop-opacity:0"/><stop offset=".977" style="stop-color:#a96831"/></linearGradient><polygon points="73.27 273.231 44.422 302.842 74.899 278.944 85.539 275.108" class="st12"/><linearGradient id="SVGID_15_" x1="119.782" x2="51.059" y1="266.1" y2="294.44" gradientUnits="userSpaceOnUse"><stop offset="0" style="stop-color:#fff"/><stop offset="1" style="stop-color:#efedee;stop-opacity:0"/></linearGradient><polygon points="75.563 282.309 44.422 302.842 74.899 278.944 85.539 275.108" class="st13"/></g><g><linearGradient id="SVGID_16_" x1="78.546" x2="53.749" y1="222.3" y2="282.876" gradientUnits="userSpaceOnUse"><stop offset=".082" style="stop-color:#b38536;stop-opacity:0"/><stop offset=".977" style="stop-color:#a96831"/></linearGradient><polygon points="67.62 250.318 28.906 297.578 69.966 259.538 83.895 255.218" class="st14"/><linearGradient id="SVGID_17_" x1="113.949" x2="45.226" y1="251.955" y2="280.294" gradientUnits="userSpaceOnUse"><stop offset="0" style="stop-color:#fff"/><stop offset="1" style="stop-color:#efedee;stop-opacity:0"/></linearGradient><polygon points="28.906 297.578 70.758 262.758 83.895 255.218 69.966 259.538" class="st15"/></g><g><linearGradient id="SVGID_18_" x1="214.856" x2="228.671" y1="422.454" y2="455.93" gradientUnits="userSpaceOnUse"><stop offset=".082" style="stop-color:#b38536;stop-opacity:0"/><stop offset=".977" style="stop-color:#a96831"/></linearGradient><polygon points="242.829 475.454 229.189 491.137 248.173 474.912 247.079 466.581" class="st16"/><linearGradient id="SVGID_19_" x1="259.18" x2="227.771" y1="466.582" y2="484.904" gradientUnits="userSpaceOnUse"><stop offset=".122" style="stop-color:#f1ca6d"/><stop offset=".977" style="stop-color:#e6aa48"/></linearGradient><polygon points="252.663 474.199 229.189 491.137 248.173 474.912 247.079 466.581" class="st17"/></g><g><linearGradient id="SVGID_20_" x1="402.517" x2="431.157" y1="336.834" y2="406.23" gradientUnits="userSpaceOnUse"><stop offset=".082" style="stop-color:#b38536;stop-opacity:0"/><stop offset=".977" style="stop-color:#a96831"/></linearGradient><polygon points="468.353 435.826 428.943 480.571 473.697 435.283 472.604 426.953" class="st18"/><linearGradient id="SVGID_21_" x1="498.232" x2="426.592" y1="426.078" y2="467.868" gradientUnits="userSpaceOnUse"><stop offset=".122" style="stop-color:#f1ca6d"/><stop offset=".977" style="stop-color:#e6aa48"/></linearGradient><polygon points="478.187 434.57 428.943 480.571 473.697 435.283 472.604 426.953" class="st19"/></g><g><linearGradient id="SVGID_22_" x1="512.054" x2="530.873" y1="352.16" y2="397.76" gradientUnits="userSpaceOnUse"><stop offset=".082" style="stop-color:#b38536;stop-opacity:0"/><stop offset=".977" style="stop-color:#a96831"/></linearGradient><polygon points="550.429 421.663 532.846 445.193 555.773 421.121 554.679 412.791" class="st20"/><linearGradient id="SVGID_23_" x1="570.076" x2="530.644" y1="413.643" y2="436.645" gradientUnits="userSpaceOnUse"><stop offset=".122" style="stop-color:#f1ca6d"/><stop offset=".977" style="stop-color:#e6aa48"/></linearGradient><polygon points="560.263 420.408 532.846 445.193 555.773 421.121 554.679 412.791" class="st21"/></g><g><linearGradient id="SVGID_24_" x1="231.903" x2="255.246" y1="386.515" y2="443.077" gradientUnits="userSpaceOnUse"><stop offset=".082" style="stop-color:#b38536;stop-opacity:0"/><stop offset=".977" style="stop-color:#a96831"/></linearGradient><polygon points="284.182 469.085 254.035 503.424 289.526 468.543 288.432 460.213" class="st22"/><linearGradient id="SVGID_25_" x1="309.212" x2="252.012" y1="459.664" y2="493.031" gradientUnits="userSpaceOnUse"><stop offset=".122" style="stop-color:#f1ca6d"/><stop offset=".977" style="stop-color:#e6aa48"/></linearGradient><polygon points="294.016 467.83 254.035 503.424 289.526 468.543 288.432 460.213" class="st23"/></g><g><linearGradient id="SVGID_26_" x1="197.905" x2="221.285" y1="37.351" y2="386.99" gradientUnits="userSpaceOnUse"><stop offset=".029" style="stop-color:#b38536;stop-opacity:.7"/><stop offset=".977" style="stop-color:#662d1d"/></linearGradient><path d="M157.2191925,435.2532043c0.6141968-1.2817078,35.2888336-73.278595,125.0597992-142.4611816 l-25.568512-10.6989746C184.1315613,358.3887939,157.7237701,433.7920837,157.2191925,435.2532043z" class="st24"/><linearGradient id="SVGID_27_" x1="457.156" x2="480.536" y1="20.015" y2="369.654" gradientUnits="userSpaceOnUse"><stop offset=".029" style="stop-color:#b38536;stop-opacity:.7"/><stop offset=".977" style="stop-color:#662d1d"/></linearGradient><path d="M567.6813965,362.8776245c-1.1431885-1.1705322-60.4804077-61.4547424-162.6239319-106.9421997 l-18.4901123,18.4677429C501.1809692,307.5472107,566.5210571,361.9088135,567.6813965,362.8776245z" class="st25"/><linearGradient id="SVGID_28_" x1="287.983" x2="339.703" y1="40.444" y2="489.625" gradientUnits="userSpaceOnUse"><stop offset=".082" style="stop-color:#b38536;stop-opacity:0"/><stop offset=".977" style="stop-color:#662d1d"/></linearGradient><path d="M94.0955658,175.149292c0,0,115.262558,126.9754333,249.8520966,153.0123291 c0,0,130.8374634-104.8569336,160.610199-225.3879089c0,0-57.5041199,133.3434143-166.3010864,185.0041199 C338.2567749,287.777832,195.3218384,269.7532349,94.0955658,175.149292z" class="st26"/><linearGradient id="SVGID_29_" x1="292.111" x2="315.491" y1="31.052" y2="380.69" gradientUnits="userSpaceOnUse"><stop offset=".029" style="stop-color:#b38536;stop-opacity:.7"/><stop offset=".977" style="stop-color:#662d1d"/></linearGradient><path d="M386.5673523,274.4031677l18.4901123-18.4677429 c72.5880127-76.2973022,98.9980164-151.6915131,99.5003662-153.1617126 c-0.611969,1.2907944-35.2866211,73.2876816-125.0666199,142.4718933 c-8.7644043,6.7595978-18.0555115,13.48909-27.8998413,20.1173553 c-6.0111389,4.0597534-12.2301025,8.0804749-18.6680298,12.0546265 c-7.7502747-1.4724121-15.3302002-3.0599365-22.7376709-4.7536621 c-12.121582-2.7550964-23.7913818-5.7886047-34.9828186-9.0294495 c-114.6045685-33.1456757-179.9446716-87.5072937-181.1072998-88.4851837 c1.1455002,1.1796112,60.4805603,61.4546814,162.6149292,106.9437714l25.568512,10.6989746 c18.536438,7.2451172,38.2705078,13.9005432,59.1278381,19.5819702 C357.9169617,300.1036682,372.9336243,287.3207397,386.5673523,274.4031677z" class="st27"/></g><g><g><linearGradient id="SVGID_30_" x1="347.998" x2="305.115" y1="205.531" y2="150.899" gradientTransform="matrix(0.9811284 -0.1933574 0.1933574 0.9811284 -29.8712063 61.7335396)" gradientUnits="userSpaceOnUse"><stop offset="0" style="stop-color:#7a4326"/><stop offset="1" style="stop-color:#462214"/></linearGradient><path d="M344.3037109,146.7355499c0.4714661,12.9631348-6.2998352,47.1513519-35.0039673,47.787674 c-28.704071,0.636322-27.6643982-36.1747742-27.6643982-36.1747742s2.8114929-0.1788635,7.39151-0.6414948 c3.7058716-0.3680725,8.5674438-0.9120941,14.0695496-1.6858978c6.2718201-0.8736725,13.3760071-2.0537872,20.526062-3.5922699 c5.1768799-1.1108246,10.3816528-2.4083252,15.3232422-3.9256439 C340.7772522,147.9480591,342.5615845,147.3505554,344.3037109,146.7355499z" class="st28"/><path d="M323.622467,152.4287872c0.0045166,3.6998291-0.1658936,9.4009857-1.2581177,10.8842926 c-1.6420593,2.2386475-16.0436401,4.2099304-16.5589905,2.4481812 c-0.3281555-1.0740204-1.6935425-6.0325165-2.7089539-9.7402039 C309.3682251,155.1473846,316.4724121,153.9672699,323.622467,152.4287872z" class="st29"/><g><path d="M309.2996826,194.5286102c9.2395935-0.2046814,16.1958008-3.8957214,21.3798218-9.2272339 c-0.9627075-0.9734192-1.9442444-1.8842163-2.9503784-2.7121735 c-10.4662781-8.6460266-22.9724426-9.6743317-33.5288086-8.1672668 c-3.4414063,0.4912109-6.6552429,1.2555084-9.5430908,2.1103973 C287.9636841,185.7055664,294.8722229,194.848175,309.2996826,194.5286102z" class="st30"/><linearGradient id="SVGID_31_" x1="331.155" x2="316.229" y1="268.035" y2="304.913" gradientTransform="matrix(0.9953283 0.0965482 -0.0965482 0.9953283 7.9909582 -125.5977859)" gradientUnits="userSpaceOnUse"><stop offset="0" style="stop-color:#fbfcfb"/><stop offset="1" style="stop-color:#4b261b"/></linearGradient><path d="M309.2996826,194.5286102c9.2395935-0.2046814,16.1958008-3.8957214,21.3798218-9.2272339 c-0.9627075-0.9734192-1.9442444-1.8842163-2.9503784-2.7121735 c-17.1329346,18.3601379-48.4073486,3.9886169-33.5288086-8.1672668 c-3.4414063,0.4912109-6.6552429,1.2555084-9.5430908,2.1103973 C287.9636841,185.7055664,294.8722229,194.848175,309.2996826,194.5286102z" class="st31"/></g></g><g><linearGradient id="SVGID_32_" x1="278.131" x2="270.29" y1="247.052" y2="275.564" gradientTransform="matrix(0.9910039 0.1338334 -0.1338334 0.9910039 14.2706261 -147.3686981)" gradientUnits="userSpaceOnUse"><stop offset="0" style="stop-color:#7a4326"/><stop offset="1" style="stop-color:#462214"/></linearGradient><circle cx="250.77" cy="148.926" r="17.062" class="st32"/><ellipse cx="255.825" cy="143.619" class="st29" rx="6.6" ry="6.6" transform="matrix(0.0243637 -0.9997032 0.9997032 0.0243637 106.015419 395.8684692)"/></g><g><linearGradient id="SVGID_33_" x1="393.323" x2="381.205" y1="219.979" y2="246.353" gradientTransform="matrix(0.9910039 0.1338334 -0.1338334 0.9910039 14.2706261 -147.3686981)" gradientUnits="userSpaceOnUse"><stop offset="0" style="stop-color:#7a4326"/><stop offset="1" style="stop-color:#462214"/></linearGradient><circle cx="367.903" cy="133.86" r="17.062" class="st33"/><ellipse cx="372.957" cy="128.553" class="st29" rx="6.6" ry="6.6" transform="matrix(0.0243637 -0.9997032 0.9997032 0.0243637 235.3557587 498.2677917)"/></g><g><ellipse cx="396.477" cy="173.094" class="st34" rx="29.796" ry="13.955" transform="matrix(0.9889741 -0.1480886 0.1480886 0.9889741 -21.2617645 60.6222572)"/><ellipse cx="234.339" cy="194.179" class="st34" rx="29.796" ry="13.955" transform="matrix(0.9889741 -0.1480886 0.1480886 0.9889741 -26.1718426 36.8439064)"/></g></g><g><linearGradient id="SVGID_34_" x1="501.874" x2="482.72" y1="367.785" y2="318.924" gradientTransform="matrix(0.9794936 0.2014755 -0.2014755 0.9794936 53.4976883 -138.3682098)" gradientUnits="userSpaceOnUse"><stop offset=".082" style="stop-color:#b38536;stop-opacity:0"/><stop offset=".977" style="stop-color:#662d1d"/></linearGradient><path d="M474.5168457,241.6264954c5.3310547,7.9348602-0.2503662,37.4719238-11.1360474,52.0699158 c-10.8857117,14.5979919-19.7271423,9.4490662-13.8961487-14.7442627s-3.5152588-39.0713654-3.5152588-39.0713654 S466.6560364,229.9262543,474.5168457,241.6264954z" class="st35"/><g><linearGradient id="SVGID_35_" x1="435.773" x2="479.162" y1="234.973" y2="287.157" gradientUnits="userSpaceOnUse"><stop offset=".122" style="stop-color:#f1ca6d"/><stop offset=".977" style="stop-color:#e6aa48"/></linearGradient><path d="M446.727417,292.8002319c11.018158,5.1072998,35.3972778-21.2873535,30.9162292-48.9291077 c-0.667572-4.1410217-2.3527222-7.4285126-4.6333008-9.8884277 c-10.3396301-11.2294769-32.8922119-5.4518433-27.4666138,13.5817566 c4.5291443,15.8714905-1.7348633,28.8028564-2.6114197,37.0282898 C442.5117798,288.3932495,443.2488403,291.1873474,446.727417,292.8002319z" class="st36"/><linearGradient id="SVGID_36_" x1="491.383" x2="425.127" y1="235.744" y2="272.977" gradientUnits="userSpaceOnUse"><stop offset="0" style="stop-color:#fff"/><stop offset="1" style="stop-color:#efedee;stop-opacity:0"/></linearGradient><path d="M456.8468628,231.161087c9.3302612,2.7701569,7.5591431,32.3700409,1.3463135,44.3079987 c-6.2128601,11.9379272-11.5501709,12.0603943-8.1486511-1.2423401 c3.4014893-13.3027344,2.0971069-28.3979797,0.1616211-33.348175S451.2645569,229.5037079,456.8468628,231.161087z" class="st37"/><linearGradient id="SVGID_37_" x1="455.492" x2="466.925" y1="245.766" y2="293.552" gradientUnits="userSpaceOnUse"><stop offset="0" style="stop-color:#e2b646;stop-opacity:0"/><stop offset=".977" style="stop-color:#d89633"/></linearGradient><path d="M446.727417,292.8002319c11.018158,5.1072998,35.3972778-21.2873535,30.9162292-48.9291077 c-0.667572-4.1410217-2.3527222-7.4285126-4.6333008-9.8884277c6.179657,21.7524414-7.2688904,49.3576965-19.300293,52.4160156 c-6.9083862,1.7532654-9.6896362,0.0869446-10.7777405-1.8059692 C442.5117798,288.3932495,443.2488403,291.1873474,446.727417,292.8002319z" class="st38"/></g></g><g><linearGradient id="SVGID_38_" x1="178.406" x2="208.322" y1="207.736" y2="128.615" gradientTransform="matrix(0.9403173 -0.3402989 0.3402989 0.9403173 -32.4523125 221.0186615)" gradientUnits="userSpaceOnUse"><stop offset=".082" style="stop-color:#b38536;stop-opacity:0"/><stop offset=".977" style="stop-color:#662d1d"/></linearGradient><path d="M187.305191,292.2674866c-3.2554779,8.9880066,9.2985382,36.3007507,23.3893585,47.8353882 c14.0908356,11.5346375,21.4259033,4.4017029,9.9211273-17.6654053 c-11.5047913-22.0671082-6.0310364-38.7628174-6.0310364-38.7628174S192.1054993,279.0143738,187.305191,292.2674866z" class="st39"/><g><linearGradient id="SVGID_39_" x1="235.095" x2="185.855" y1="326.651" y2="277.057" gradientUnits="userSpaceOnUse"><stop offset=".122" style="stop-color:#f1ca6d"/><stop offset=".977" style="stop-color:#e6aa48"/></linearGradient><path d="M237.1794434,329.4363098c-7.7284546,9.3678284-41.1209412-3.8972473-49.0270996-30.7605591 c-1.1878204-4.0227966-1.0890961-7.7156982-0.0957336-10.9196777 c4.4705048-14.5953369,27.3049316-19.1326904,30.6388245,0.3762817 c2.775589,16.2700195,14.013382,25.2237854,18.3589478,32.2623901 C239.0762329,323.6401978,239.6192017,326.4783936,237.1794434,329.4363098z" class="st40"/><linearGradient id="SVGID_40_" x1="211.534" x2="181.338" y1="157.706" y2="167.966" gradientTransform="matrix(0.9403173 -0.3402989 0.3402989 0.9403173 -32.4523125 221.0186615)" gradientUnits="userSpaceOnUse"><stop offset="0" style="stop-color:#fff"/><stop offset="1" style="stop-color:#efedee;stop-opacity:0"/></linearGradient><path d="M201.4128571,278.2255859c-7.2164764,6.5307007,7.1740875,32.45755,17.9363556,40.5375977 c10.7622833,8.0800781,15.6282654,5.8836365,6.8112793-4.6422424 c-8.8169708-10.5258484-14.1650543-24.7020874-14.5592041-30.002594 C211.2071228,278.8178711,205.7304993,274.3182678,201.4128571,278.2255859z" class="st41"/><linearGradient id="SVGID_41_" x1="227.601" x2="223.173" y1="328.225" y2="302.543" gradientTransform="matrix(0.9403173 -0.3402989 0.3402989 0.9403173 -32.4523125 221.0186615)" gradientUnits="userSpaceOnUse"><stop offset="0" style="stop-color:#e2b646;stop-opacity:0"/><stop offset=".977" style="stop-color:#d89633"/></linearGradient><path d="M237.1794434,329.4363098c-7.7284546,9.3678284-41.1209412-3.8972473-49.0270996-30.7605591 c-1.1878204-4.0227966-1.0890961-7.7156982-0.0957336-10.9196777 c3.8289948,22.2866821,27.8878326,41.3677063,40.0592804,38.9255371 c6.9875641-1.4048462,8.7754059-4.1095886,8.9384918-6.2868652 C239.0762329,323.6401978,239.6192017,326.4783936,237.1794434,329.4363098z" class="st42"/></g></g></g></g></switch></svg>